<?xml version="1.0" encoding="iso-8859-1"?>
<!-- Generator: Adobe Illustrator 16.0.0, SVG Export Plug-In . SVG Version: 6.00 Build 0)  -->
<!DOCTYPE svg PUBLIC "-//W3C//DTD SVG 1.1//EN" "http://www.w3.org/Graphics/SVG/1.1/DTD/svg11.dtd">
<svg version="1.1" id="Capa_1" xmlns="http://www.w3.org/2000/svg" xmlns:xlink="http://www.w3.org/1999/xlink" x="0px" y="0px"
	 width="344.021px" height="344.021px" viewBox="0 0 344.021 344.021" style="enable-background:new 0 0 344.021 344.021;"
	 xml:space="preserve">
<g>
	<g>
		<path d="M322.351,89.375c-47.735-6.732-87.516-39.168-132.804-53.244C138.139,20.219,89.179,20.219,37.771,35.52
			c10.404,39.78,14.688,83.232,15.912,125.46c41.004-13.464,83.232,0,125.46-1.836c49.572-1.224,126.685-17.136,145.656-70.38
			C324.187,89.375,323.576,89.375,322.351,89.375z M144.871,124.259c-2.448,0.612-3.672,0.612-5.508,0
			c-26.316-1.224-59.976-29.988-47.736-58.14c4.896-11.628,16.524-17.136,28.764-15.3c9.18,1.224,15.912,6.732,20.808,14.076
			c11.628-15.3,32.436-22.644,47.125-4.896C210.967,86.315,166.292,115.691,144.871,124.259z"/>
		<path d="M46.339,182.399c-2.448-51.408-12.24-102.204-13.464-153.612c0,0,0,0,0-0.612c-1.224-1.224-1.224-3.672,0.612-4.896
			c4.284-2.448,8.568-2.448,11.628-7.344c3.06-5.508,0-11.628-5.508-14.688c-5.508-2.448-11.016-1.224-15.3,3.06
			c-2.448,2.448-8.568,14.688-2.448,15.912c0.612,0,1.224,0,2.448,0.612c0.612,0.612,1.224,1.224,0.612,1.836
			c12.852,105.876,10.404,214.812,6.12,321.3c20.196,2.447,17.748-80.173,17.748-91.188
			C48.175,230.136,47.563,206.268,46.339,182.399z"/>
	</g>
</g>
<g>
</g>
<g>
</g>
<g>
</g>
<g>
</g>
<g>
</g>
<g>
</g>
<g>
</g>
<g>
</g>
<g>
</g>
<g>
</g>
<g>
</g>
<g>
</g>
<g>
</g>
<g>
</g>
<g>
</g>
</svg>
